<svg width="109" height="30" viewBox="0 0 109 30" fill="none" xmlns="http://www.w3.org/2000/svg">
<g clip-path="url(#clip0_37_3)">
<path d="M13.116 3C11.9426 3 11.0112 4.01787 10.9759 5.24949C10.9743 5.26249 10.9735 5.27558 10.9735 5.28868V5.30111V5.30158C10.9735 5.30818 10.9726 5.31457 10.9726 5.32118C10.9724 5.33138 10.9727 5.34159 10.9735 5.35176L10.9707 6.83517C10.9705 6.85733 10.9727 6.87944 10.9773 6.90112C10.9773 6.9016 10.9773 6.90207 10.9773 6.90255C10.9988 7.5842 11.2439 8.20971 11.6402 8.69086C11.2249 9.1884 10.974 9.84257 10.9664 10.5566C10.9644 10.5712 10.9634 10.5858 10.9635 10.6006L10.9535 15.8963C10.9535 15.8969 10.9535 15.8976 10.9535 15.8982C10.9535 15.8988 10.9535 15.8995 10.9535 15.9001V15.9402C10.9534 15.9579 10.9548 15.9754 10.9578 15.9928C10.9578 15.9935 10.9578 15.9941 10.9578 15.9947C10.9719 16.7817 11.279 17.4962 11.7788 18.0043C11.2619 18.5266 10.9469 19.271 10.9473 20.0803V20.0808C10.9463 20.0906 10.9458 20.1005 10.9458 20.1104L10.9387 23.8769C10.9387 23.878 10.9387 23.8791 10.9387 23.8802C10.9387 23.8807 10.9387 23.8812 10.9387 23.8816V23.9199C10.9384 23.9383 10.9399 23.9567 10.943 23.9748C10.9892 25.1961 11.916 26.2014 13.0821 26.2014C13.8129 26.2014 14.4496 25.8055 14.8355 25.2102C14.956 25.2675 15.0801 25.3185 15.2116 25.355C16.5312 25.7218 17.8701 24.835 18.195 23.4286C18.2082 23.3716 18.217 23.3146 18.2266 23.2575C19.4076 23.7031 20.7644 23.1928 21.4155 21.9925C21.9335 21.0376 21.893 19.8983 21.3969 19.0095C21.7374 18.7043 22.0284 18.3235 22.2461 17.8764C23.0641 16.1966 22.5928 14.1442 21.1857 13.0735C21.3585 12.6944 21.4595 12.2711 21.4595 11.8219C21.4595 10.4384 20.5325 9.26615 19.296 9.03468C19.8128 7.70305 19.4445 6.12047 18.3159 5.23153C17.6614 4.71615 16.8687 4.54304 16.1233 4.67668C15.8149 4.73197 15.5158 4.8425 15.2368 5.00023C15.0921 3.88378 14.2089 3.00022 13.1158 3.00022L13.116 3ZM10.4817 3.0043C9.74701 3.0106 9.01461 3.0866 8.29431 3.2313L8.29574 3.23226L8.29622 3.23274C8.30558 3.25204 8.31466 3.27148 8.32346 3.29104L8.32968 3.30633C8.5607 3.86064 8.56233 4.48397 8.3342 5.03947C8.10608 5.59498 7.66684 6.03726 7.11293 6.26923C6.55911 6.50102 5.93596 6.50364 5.38021 6.27652C4.82446 6.04939 4.38152 5.61107 4.14856 5.05774C4.13818 5.03117 4.12831 5.0044 4.11894 4.97745C2.87126 5.82013 1.79937 6.89741 0.962983 8.14931C1.44994 8.38837 1.83501 8.79413 2.04829 9.29292L2.05498 9.30869C2.28585 9.86294 2.28739 10.4861 2.05928 11.0415C1.83116 11.5969 1.39202 12.0391 0.838229 12.2711C0.326448 12.4846 -0.245857 12.5032 -0.770382 12.3232C-1.07541 13.8341 -1.07655 15.3906 -0.773727 16.902C-0.749874 16.8903 -0.725816 16.8789 -0.701564 16.8681C-0.148619 16.6342 0.474501 16.6293 1.03107 16.8544C1.58764 17.0794 2.0322 17.5161 2.2672 18.0685L2.27389 18.0843C2.50461 18.6385 2.50608 19.2616 2.27797 19.8169C2.04987 20.3721 1.61082 20.8142 1.05715 21.0462C1.02774 21.0575 0.998107 21.0682 0.968258 21.0782C1.82328 22.3488 2.92122 23.4377 4.19884 24.2821C4.43058 23.7484 4.85869 23.3242 5.39454 23.0974C5.94754 22.8635 6.57079 22.8585 7.12747 23.0835C7.68416 23.3086 8.1288 23.7453 8.3638 24.2979L8.37049 24.3137C8.59295 24.8504 8.60082 25.4521 8.39247 25.9944C9.08141 26.1248 9.78073 26.1924 10.4819 26.1966V19.3503C9.56807 19.3275 8.68023 19.0417 7.92475 18.5271C7.16927 18.0126 6.5782 17.2911 6.22238 16.4491C5.7338 15.2887 5.72559 13.9819 6.19957 12.8155C6.67355 11.649 7.59098 10.7184 8.75047 10.2277C9.29939 9.9972 9.88672 9.87188 10.4819 9.85827V3.00414L10.4817 3.0043ZM13.116 3.61171C13.9497 3.61171 14.6481 4.35873 14.6481 5.32115C14.6477 5.35627 14.6534 5.39119 14.6648 5.42438C14.499 5.58204 14.3462 5.7597 14.2137 5.96203C14.1911 5.99563 14.1754 6.03338 14.1675 6.07309C14.1596 6.11279 14.1597 6.15367 14.1677 6.19335C14.1758 6.23303 14.1916 6.27072 14.2143 6.30424C14.237 6.33775 14.2662 6.36643 14.3 6.3886C14.3339 6.41077 14.3718 6.426 14.4116 6.43339C14.4514 6.44079 14.4923 6.44022 14.5319 6.4317C14.5715 6.42318 14.609 6.40689 14.6422 6.38377C14.6754 6.36066 14.7038 6.33117 14.7255 6.29703C15.4821 5.1415 16.8951 4.89067 17.9375 5.71159C18.9799 6.53254 19.2275 8.15894 18.4708 9.31459C18.0407 9.97157 17.3944 10.3287 16.7289 10.3703C16.6621 10.3745 16.5952 10.3715 16.5282 10.3693C16.513 9.65844 16.2364 8.95698 15.7043 8.44529C16.0046 7.98802 16.1842 7.43271 16.1898 6.83524C16.1905 6.79488 16.1833 6.75478 16.1684 6.71725C16.1536 6.67972 16.1314 6.6455 16.1033 6.61657C16.0751 6.58763 16.0415 6.56455 16.0044 6.54866C15.9673 6.53276 15.9275 6.52437 15.8871 6.52396C15.8467 6.52355 15.8067 6.53113 15.7693 6.54627C15.7319 6.5614 15.6978 6.5838 15.6691 6.61216C15.6404 6.64051 15.6175 6.67428 15.6019 6.7115C15.5863 6.74872 15.5782 6.78866 15.5781 6.82902C15.5663 8.07308 14.6514 9.0379 13.5609 9.02547C12.4704 9.01306 11.5725 8.02673 11.5843 6.78268C11.5845 6.77248 11.5842 6.76227 11.5834 6.75209C11.5831 6.75002 11.5827 6.74795 11.5824 6.74588L11.5848 5.45076L11.5853 5.3007C11.5953 4.34836 12.2883 3.61171 13.116 3.61171ZM15.3114 8.91869C16.0484 9.66192 16.1214 10.947 15.4567 11.7847C15.4039 11.8513 15.3485 11.9129 15.2904 11.9696C15.2641 11.9954 15.2355 12.0166 15.2082 12.0404C15.187 12.0101 15.1676 11.9784 15.1451 11.9491C14.7453 11.4267 14.161 11.068 13.4816 11.0019C13.4716 11.0008 13.4615 11.0001 13.4515 11C13.372 10.9987 13.2952 11.0284 13.2373 11.0828C13.1793 11.1371 13.1448 11.2119 13.141 11.2912C13.1373 11.3706 13.1645 11.4483 13.217 11.5079C13.2695 11.5676 13.3431 11.6044 13.4223 11.6107C14.4209 11.708 15.1846 12.6878 15.0921 13.8301C15.0776 14.0087 15.0431 14.1792 14.9913 14.3395C14.978 14.378 14.9725 14.4187 14.9751 14.4594C14.9778 14.5 14.9885 14.5396 15.0067 14.5761C15.0249 14.6125 15.0501 14.6449 15.081 14.6714C15.1118 14.6979 15.1477 14.7181 15.1864 14.7305C15.2252 14.743 15.266 14.7477 15.3066 14.7442C15.3471 14.7407 15.3866 14.7292 15.4226 14.7103C15.4586 14.6913 15.4905 14.6654 15.5164 14.634C15.5423 14.6026 15.5616 14.5663 15.5733 14.5274C15.6397 14.322 15.6836 14.105 15.7019 13.8793C15.7387 13.424 15.6661 12.9829 15.5074 12.588C15.6622 12.4673 15.8068 12.3269 15.9356 12.1646C16.215 11.8124 16.3945 11.4046 16.4775 10.9813C17.1906 11.0125 17.902 10.7599 18.4622 10.2578C18.5106 10.2144 18.5576 10.1691 18.6037 10.1221C18.7419 9.98091 18.8691 9.8233 18.9827 9.64992C18.9911 9.63698 18.9978 9.62328 19.0061 9.61025C20.0259 9.6979 20.8479 10.6371 20.8479 11.8215C20.8479 12.1413 20.7873 12.444 20.6787 12.7171C20.6745 12.7277 20.6687 12.7372 20.6644 12.7477C20.2973 12.5611 19.9129 12.4466 19.5265 12.4084C19.1522 12.3713 18.778 12.405 18.4182 12.4982C18.3019 12.1728 18.0826 11.8868 17.7726 11.7006C17.7202 11.6682 17.6592 11.6524 17.5977 11.6552C17.5318 11.6583 17.4686 11.6826 17.4177 11.7245C17.3667 11.7664 17.3307 11.8237 17.3149 11.8877C17.2992 11.9518 17.3046 12.0192 17.3303 12.08C17.356 12.1408 17.4007 12.1916 17.4577 12.2248C17.861 12.4672 18.0254 13.0575 17.7931 13.5223C17.7568 13.5951 17.7139 13.6594 17.666 13.7154C17.6385 13.7457 17.6174 13.7813 17.6039 13.8199C17.5904 13.8585 17.5848 13.8995 17.5875 13.9403C17.5901 13.9812 17.6009 14.0211 17.6192 14.0577C17.6375 14.0943 17.6629 14.1268 17.6941 14.1534C17.7252 14.18 17.7613 14.2 17.8003 14.2124C17.8393 14.2247 17.8804 14.2291 17.9212 14.2253C17.9619 14.2215 18.0015 14.2096 18.0375 14.1902C18.0736 14.1708 18.1054 14.1444 18.131 14.1125C18.2118 14.0181 18.2821 13.9122 18.3403 13.7957C18.4501 13.5759 18.5052 13.3401 18.5124 13.1061C19.1687 12.9186 19.8819 12.9863 20.532 13.367C21.9052 14.1713 22.4409 16.0789 21.6962 17.6084C21.327 18.3665 20.7223 18.8799 20.0436 19.1114C19.7381 19.2156 19.4356 19.1877 19.1102 19.0177C18.7849 18.8477 18.4445 18.525 18.1372 18.0447C18.1357 18.0423 18.1341 18.0399 18.1324 18.0375C18.5612 17.6983 18.8475 17.1609 18.8727 16.5551C18.875 16.5142 18.869 16.4734 18.8552 16.4349C18.8413 16.3964 18.8199 16.3611 18.7922 16.331C18.7645 16.3009 18.7311 16.2767 18.6938 16.2598C18.6566 16.2429 18.6163 16.2336 18.5755 16.2325C18.4944 16.2303 18.4158 16.2604 18.357 16.3161C18.2981 16.3719 18.2637 16.4487 18.2615 16.5297C18.2301 17.2837 17.6647 17.8323 17.0209 17.8C16.9202 17.7949 16.8238 17.776 16.7317 17.745C16.6936 17.7322 16.6534 17.7271 16.6133 17.7298C16.5732 17.7326 16.534 17.7432 16.4981 17.7611C16.4621 17.7789 16.43 17.8037 16.4035 17.834C16.3771 17.8643 16.357 17.8995 16.3442 17.9376C16.3314 17.9757 16.3262 18.016 16.3289 18.0561C16.3317 18.0962 16.3423 18.1353 16.3602 18.1713C16.3781 18.2073 16.4029 18.2394 16.4332 18.2658C16.4635 18.2922 16.4987 18.3124 16.5367 18.3252C16.6806 18.3736 16.833 18.4029 16.9903 18.4108C17.2022 18.4214 17.4055 18.39 17.5963 18.3271C17.6035 18.3436 17.6121 18.3595 17.6221 18.3744C17.972 18.9213 18.3779 19.3255 18.8268 19.5601C19.2758 19.7947 19.7758 19.8492 20.241 19.6906C20.4691 19.6128 20.6883 19.5068 20.8971 19.379C21.2542 20.0744 21.2779 20.9629 20.878 21.7001C20.3231 22.7232 19.2058 23.0817 18.2628 22.6072C18.1964 21.5042 17.4974 20.5166 16.4458 20.2153C16.5289 19.7077 16.4258 19.1667 16.1189 18.7185C16.0905 18.6757 16.0519 18.6408 16.0064 18.6169C15.961 18.593 15.9103 18.581 15.859 18.5818C15.8155 18.5825 15.7727 18.5925 15.7334 18.611C15.6941 18.6296 15.6592 18.6563 15.631 18.6894C15.6028 18.7225 15.582 18.7612 15.57 18.803C15.558 18.8448 15.555 18.8886 15.5612 18.9317C15.5626 18.9418 15.5645 18.9518 15.567 18.9618C15.5761 18.9985 15.592 19.0331 15.6138 19.064C16.0189 19.6557 15.9042 20.5144 15.3744 20.9508C15.2915 21.019 15.2046 21.0728 15.1153 21.1133C15.0772 21.1287 15.0425 21.1518 15.0134 21.181C14.9844 21.2102 14.9615 21.245 14.9462 21.2833C14.9309 21.3215 14.9235 21.3625 14.9245 21.4037C14.9254 21.4449 14.9346 21.4855 14.9517 21.523C14.9687 21.5605 14.9931 21.5942 15.0234 21.6221C15.0538 21.65 15.0895 21.6714 15.1283 21.6851C15.1672 21.6989 15.2084 21.7046 15.2495 21.702C15.2907 21.6994 15.3308 21.6885 15.3677 21.67C15.5064 21.6071 15.6398 21.5247 15.7634 21.4229C15.9756 21.2481 16.1403 21.0332 16.2585 20.7969C16.2604 20.7975 16.2623 20.7982 16.2642 20.7988C17.2388 21.0697 17.8549 22.1809 17.5985 23.2907C17.4062 24.1229 16.8001 24.6885 16.0979 24.8052C16.0394 24.8149 15.9803 24.8219 15.9206 24.8252C15.8012 24.832 15.6796 24.8255 15.5579 24.8056C15.497 24.7957 15.4362 24.7824 15.3753 24.7655C15.2786 24.7386 15.1874 24.7011 15.0986 24.6589C15.1797 24.4142 15.2257 24.1524 15.2257 23.8799C15.2267 23.8 15.1964 23.7229 15.1412 23.6651C15.0861 23.6072 15.0105 23.5733 14.9306 23.5705C14.8507 23.5677 14.773 23.5962 14.7139 23.65C14.6548 23.7039 14.6191 23.7787 14.6145 23.8584C14.6141 23.8656 14.6139 23.8728 14.614 23.8799C14.614 24.7822 13.9999 25.4952 13.2362 25.5808C13.1853 25.5865 13.134 25.5894 13.0818 25.5894C12.2486 25.5894 11.5509 24.8431 11.5502 23.8814C11.5502 23.8809 11.5502 23.8804 11.5502 23.8799L11.5573 20.2226C11.5583 20.2101 11.5584 20.1975 11.5578 20.1849C11.505 18.9615 12.3437 17.9521 13.4092 17.867C13.526 18.1832 13.7199 18.4718 13.9913 18.6952C14.1149 18.797 14.2478 18.8799 14.3865 18.9428C14.4232 18.9601 14.463 18.97 14.5035 18.9717C14.544 18.9735 14.5845 18.9673 14.6226 18.9532C14.6607 18.9392 14.6956 18.9178 14.7253 18.8902C14.755 18.8626 14.7789 18.8293 14.7957 18.7923C14.8124 18.7554 14.8216 18.7155 14.8228 18.6749C14.8239 18.6343 14.817 18.594 14.8024 18.5561C14.7878 18.5183 14.7658 18.4837 14.7378 18.4544C14.7097 18.4251 14.676 18.4017 14.6388 18.3856C14.5495 18.3451 14.4627 18.2913 14.3798 18.2231C13.85 17.7867 13.7352 16.928 14.1404 16.3363C14.1729 16.2902 14.1921 16.236 14.1957 16.1796C14.1993 16.1233 14.1873 16.067 14.1609 16.0171C14.1345 15.9672 14.0949 15.9255 14.0463 15.8968C13.9977 15.868 13.9421 15.8533 13.8856 15.8541C13.836 15.8549 13.7873 15.8678 13.7438 15.8916C13.7002 15.9154 13.6631 15.9495 13.6357 15.9908C13.3732 16.3741 13.2597 16.8256 13.284 17.2659C12.9127 17.3072 12.5675 17.4307 12.2622 17.62C11.8326 17.209 11.5559 16.5957 11.565 15.9062L11.5697 13.2893L11.575 10.6374C11.5755 10.6293 11.5756 10.6212 11.5755 10.6131C11.57 10.0369 11.7626 9.51378 12.0777 9.11866C12.4939 9.43868 13.001 9.63088 13.5535 9.63717C14.2315 9.64491 14.8454 9.36936 15.3112 8.9189L15.3114 8.91869Z" fill="url(#paint0_linear_37_3)"/>
<path d="M37.9951 13.9639C37.9951 14.5882 37.8857 15.1351 37.667 15.6045C37.4528 16.0693 37.1566 16.4567 36.7783 16.7666C36.4046 17.0765 35.9648 17.3089 35.459 17.4639C34.9577 17.6188 34.4176 17.6963 33.8389 17.6963C33.6156 17.6963 33.3695 17.6667 33.1006 17.6074C32.8363 17.5482 32.5674 17.4753 32.2939 17.3887C32.0205 17.2975 31.7562 17.2018 31.501 17.1016C31.2503 16.9967 31.027 16.8988 30.8311 16.8076L31.1318 13.9912C31.5192 14.2236 31.9476 14.4014 32.417 14.5244C32.891 14.6429 33.3558 14.7021 33.8115 14.7021C33.8981 14.7021 34.0029 14.6999 34.126 14.6953C34.249 14.6862 34.3652 14.6657 34.4746 14.6338C34.5885 14.5973 34.6842 14.5449 34.7617 14.4766C34.8392 14.4082 34.8779 14.3102 34.8779 14.1826C34.8779 14.096 34.8506 14.0231 34.7959 13.9639C34.7412 13.9001 34.6706 13.8499 34.584 13.8135C34.4974 13.7725 34.3994 13.7428 34.29 13.7246C34.1807 13.7018 34.0736 13.6859 33.9688 13.6768C33.8639 13.6676 33.766 13.6631 33.6748 13.6631C33.5837 13.6631 33.5107 13.6631 33.4561 13.6631C33.0641 13.6631 32.7064 13.5947 32.3828 13.458C32.0638 13.3213 31.7881 13.1322 31.5557 12.8906C31.3278 12.6445 31.1501 12.3551 31.0225 12.0225C30.8949 11.6852 30.8311 11.3206 30.8311 10.9287C30.8311 10.391 30.9382 9.91016 31.1523 9.48633C31.3711 9.05794 31.6605 8.69564 32.0205 8.39941C32.3851 8.09863 32.8021 7.86849 33.2715 7.70898C33.7409 7.54948 34.2262 7.46973 34.7275 7.46973C34.9508 7.46973 35.181 7.47884 35.418 7.49707C35.6549 7.51074 35.8896 7.53809 36.1221 7.5791C36.359 7.62012 36.5892 7.67253 36.8125 7.73633C37.0358 7.80013 37.2477 7.87988 37.4482 7.97559L37.1885 10.751C36.8786 10.6462 36.5527 10.5596 36.2109 10.4912C35.8737 10.4183 35.5433 10.3818 35.2197 10.3818C35.1605 10.3818 35.083 10.3841 34.9873 10.3887C34.8962 10.3887 34.7982 10.3955 34.6934 10.4092C34.5931 10.4183 34.4906 10.4342 34.3857 10.457C34.2809 10.4798 34.1875 10.5117 34.1055 10.5527C34.0234 10.5892 33.9574 10.6393 33.9072 10.7031C33.8571 10.7669 33.8343 10.8421 33.8389 10.9287C33.8434 11.029 33.8799 11.111 33.9482 11.1748C34.0212 11.234 34.1123 11.2819 34.2217 11.3184C34.3356 11.3503 34.4587 11.373 34.5908 11.3867C34.7275 11.4004 34.862 11.4095 34.9941 11.4141C35.1263 11.4141 35.2493 11.4141 35.3633 11.4141C35.4772 11.4095 35.5706 11.4118 35.6436 11.4209C36.0081 11.4437 36.3363 11.5212 36.6279 11.6533C36.9196 11.7855 37.1657 11.9609 37.3662 12.1797C37.5713 12.3984 37.7262 12.6605 37.8311 12.9658C37.9404 13.2666 37.9951 13.5993 37.9951 13.9639ZM46.5811 7.97559C46.376 9.57975 46.2005 11.1771 46.0547 12.7676C45.9089 14.3535 45.7699 15.9508 45.6377 17.5596L42.835 17.7646L42.958 16.7119C42.8669 16.8167 42.7598 16.9079 42.6367 16.9854C42.5182 17.0628 42.3906 17.1266 42.2539 17.1768C42.1172 17.2223 41.9759 17.2565 41.8301 17.2793C41.6842 17.2975 41.5452 17.3044 41.4131 17.2998C41.1032 17.2952 40.8115 17.236 40.5381 17.1221C40.2646 17.0036 40.014 16.8486 39.7861 16.6572C39.5583 16.4613 39.3532 16.2357 39.1709 15.9805C38.9886 15.7207 38.8337 15.4495 38.7061 15.167C38.583 14.8799 38.4873 14.5882 38.4189 14.292C38.3551 13.9958 38.3232 13.7087 38.3232 13.4307C38.3232 13.0205 38.3301 12.5967 38.3438 12.1592C38.362 11.7171 38.3916 11.2751 38.4326 10.833C38.4736 10.391 38.526 9.95345 38.5898 9.52051C38.6582 9.08757 38.7425 8.67285 38.8428 8.27637C39.3988 8.30371 39.957 8.32878 40.5176 8.35156C41.0781 8.37435 41.6364 8.38118 42.1924 8.37207C42.0876 8.76855 41.9827 9.16732 41.8779 9.56836C41.7777 9.96484 41.6865 10.3659 41.6045 10.7715C41.5225 11.1725 41.4564 11.5758 41.4062 11.9814C41.3561 12.387 41.3311 12.7972 41.3311 13.2119C41.3311 13.3076 41.3356 13.4443 41.3447 13.6221C41.3538 13.7998 41.3766 13.9753 41.4131 14.1484C41.4541 14.3216 41.5133 14.4743 41.5908 14.6064C41.6729 14.734 41.7868 14.7979 41.9326 14.7979C42.1058 14.7979 42.2607 14.7249 42.3975 14.5791C42.5342 14.4287 42.6549 14.2282 42.7598 13.9775C42.8646 13.7269 42.9535 13.4375 43.0264 13.1094C43.1038 12.7812 43.1676 12.4395 43.2178 12.084C43.2725 11.724 43.3158 11.3617 43.3477 10.9971C43.3796 10.6325 43.4023 10.2907 43.416 9.97168C43.4342 9.64811 43.4456 9.35872 43.4502 9.10352C43.4593 8.84831 43.4639 8.65007 43.4639 8.50879C43.4639 8.41764 43.4616 8.32878 43.457 8.24219C43.4525 8.1556 43.4456 8.06673 43.4365 7.97559C43.7327 7.9847 44.0267 7.99154 44.3184 7.99609C44.61 8.00065 44.904 8.00293 45.2002 8.00293C45.4281 8.00293 45.6559 8.00293 45.8838 8.00293C46.1162 7.99837 46.3486 7.98926 46.5811 7.97559ZM58.9404 12.9658C58.9404 13.6175 58.9199 14.2669 58.8789 14.9141C58.8379 15.5612 58.79 16.2106 58.7354 16.8623L55.2217 17.0264C55.3265 16.2334 55.4199 15.4404 55.502 14.6475C55.5885 13.8499 55.6318 13.0524 55.6318 12.2549C55.6318 12.2048 55.6296 12.1182 55.625 11.9951C55.6204 11.8675 55.6113 11.724 55.5977 11.5645C55.5885 11.4049 55.5726 11.2409 55.5498 11.0723C55.5316 10.8991 55.5042 10.7419 55.4678 10.6006C55.4359 10.4548 55.3949 10.3363 55.3447 10.2451C55.2946 10.154 55.2354 10.1084 55.167 10.1084C55.0075 10.1084 54.8822 10.1699 54.791 10.293C54.6999 10.4115 54.6315 10.555 54.5859 10.7236C54.5449 10.8923 54.5199 11.0654 54.5107 11.2432C54.5016 11.4163 54.4971 11.5576 54.4971 11.667C54.4971 11.8584 54.5016 12.0498 54.5107 12.2412C54.5199 12.4326 54.5244 12.6286 54.5244 12.8291C54.5244 13.5355 54.5062 14.2396 54.4697 14.9414C54.4378 15.6432 54.3968 16.3473 54.3467 17.0537L51.1064 17.1768C51.2113 16.3838 51.3024 15.5931 51.3799 14.8047C51.4619 14.0117 51.5029 13.2165 51.5029 12.4189C51.5029 12.3688 51.5007 12.2777 51.4961 12.1455C51.4915 12.0133 51.4824 11.8652 51.4688 11.7012C51.4596 11.5371 51.4437 11.3662 51.4209 11.1885C51.3981 11.0107 51.3685 10.849 51.332 10.7031C51.3001 10.5527 51.2591 10.4297 51.209 10.334C51.1589 10.2383 51.0973 10.1904 51.0244 10.1904C50.9105 10.1904 50.8148 10.236 50.7373 10.3271C50.6598 10.4137 50.596 10.5277 50.5459 10.6689C50.5003 10.8102 50.4639 10.9674 50.4365 11.1406C50.4137 11.3092 50.3955 11.4756 50.3818 11.6396C50.3727 11.8037 50.3659 11.9564 50.3613 12.0977C50.3613 12.2344 50.359 12.3369 50.3545 12.4053L50.2041 17.3955H46.7588C46.8317 16.6253 46.9046 15.8529 46.9775 15.0781C47.055 14.3034 47.1211 13.5309 47.1758 12.7607C47.235 11.986 47.2829 11.2113 47.3193 10.4365C47.3558 9.66178 47.374 8.88704 47.374 8.1123L50.6279 7.97559L50.6143 8.76855C50.7145 8.64095 50.8285 8.51335 50.9561 8.38574C51.0837 8.25358 51.2181 8.13737 51.3594 8.03711C51.5052 7.93229 51.6579 7.84798 51.8174 7.78418C51.9814 7.72038 52.1501 7.68848 52.3232 7.68848C52.5465 7.68848 52.7471 7.70671 52.9248 7.74316C53.1025 7.77507 53.262 7.83203 53.4033 7.91406C53.5492 7.99609 53.6768 8.11003 53.7861 8.25586C53.8955 8.39714 53.9912 8.57715 54.0732 8.7959C54.2191 8.63639 54.3649 8.48828 54.5107 8.35156C54.6611 8.21484 54.8184 8.09863 54.9824 8.00293C55.1465 7.90267 55.3242 7.8252 55.5156 7.77051C55.707 7.71582 55.9189 7.68848 56.1514 7.68848C56.5934 7.68848 56.9694 7.77507 57.2793 7.94824C57.5892 8.11686 57.8467 8.34245 58.0518 8.625C58.2614 8.90755 58.4232 9.23112 58.5371 9.5957C58.6556 9.96029 58.7445 10.3385 58.8037 10.7305C58.863 11.1224 58.8994 11.512 58.9131 11.8994C58.9313 12.2868 58.9404 12.6423 58.9404 12.9658ZM71.5186 12.9658C71.5186 13.6175 71.498 14.2669 71.457 14.9141C71.416 15.5612 71.3682 16.2106 71.3135 16.8623L67.7998 17.0264C67.9046 16.2334 67.998 15.4404 68.0801 14.6475C68.1667 13.8499 68.21 13.0524 68.21 12.2549C68.21 12.2048 68.2077 12.1182 68.2031 11.9951C68.1986 11.8675 68.1895 11.724 68.1758 11.5645C68.1667 11.4049 68.1507 11.2409 68.1279 11.0723C68.1097 10.8991 68.0824 10.7419 68.0459 10.6006C68.014 10.4548 67.973 10.3363 67.9229 10.2451C67.8727 10.154 67.8135 10.1084 67.7451 10.1084C67.5856 10.1084 67.4603 10.1699 67.3691 10.293C67.278 10.4115 67.2096 10.555 67.1641 10.7236C67.123 10.8923 67.098 11.0654 67.0889 11.2432C67.0798 11.4163 67.0752 11.5576 67.0752 11.667C67.0752 11.8584 67.0798 12.0498 67.0889 12.2412C67.098 12.4326 67.1025 12.6286 67.1025 12.8291C67.1025 13.5355 67.0843 14.2396 67.0479 14.9414C67.016 15.6432 66.9749 16.3473 66.9248 17.0537L63.6846 17.1768C63.7894 16.3838 63.8805 15.5931 63.958 14.8047C64.04 14.0117 64.0811 13.2165 64.0811 12.4189C64.0811 12.3688 64.0788 12.2777 64.0742 12.1455C64.0697 12.0133 64.0605 11.8652 64.0469 11.7012C64.0378 11.5371 64.0218 11.3662 63.999 11.1885C63.9762 11.0107 63.9466 10.849 63.9102 10.7031C63.8783 10.5527 63.8372 10.4297 63.7871 10.334C63.737 10.2383 63.6755 10.1904 63.6025 10.1904C63.4886 10.1904 63.3929 10.236 63.3154 10.3271C63.238 10.4137 63.1742 10.5277 63.124 10.6689C63.0785 10.8102 63.042 10.9674 63.0146 11.1406C62.9919 11.3092 62.9736 11.4756 62.96 11.6396C62.9508 11.8037 62.944 11.9564 62.9395 12.0977C62.9395 12.2344 62.9372 12.3369 62.9326 12.4053L62.7822 17.3955H59.3369C59.4098 16.6253 59.4827 15.8529 59.5557 15.0781C59.6331 14.3034 59.6992 13.5309 59.7539 12.7607C59.8132 11.986 59.861 11.2113 59.8975 10.4365C59.9339 9.66178 59.9521 8.88704 59.9521 8.1123L63.2061 7.97559L63.1924 8.76855C63.2926 8.64095 63.4066 8.51335 63.5342 8.38574C63.6618 8.25358 63.7962 8.13737 63.9375 8.03711C64.0833 7.93229 64.236 7.84798 64.3955 7.78418C64.5596 7.72038 64.7282 7.68848 64.9014 7.68848C65.1247 7.68848 65.3252 7.70671 65.5029 7.74316C65.6807 7.77507 65.8402 7.83203 65.9814 7.91406C66.1273 7.99609 66.2549 8.11003 66.3643 8.25586C66.4736 8.39714 66.5693 8.57715 66.6514 8.7959C66.7972 8.63639 66.943 8.48828 67.0889 8.35156C67.2393 8.21484 67.3965 8.09863 67.5605 8.00293C67.7246 7.90267 67.9023 7.8252 68.0938 7.77051C68.2852 7.71582 68.4971 7.68848 68.7295 7.68848C69.1715 7.68848 69.5475 7.77507 69.8574 7.94824C70.1673 8.11686 70.4248 8.34245 70.6299 8.625C70.8395 8.90755 71.0013 9.23112 71.1152 9.5957C71.2337 9.96029 71.3226 10.3385 71.3818 10.7305C71.4411 11.1224 71.4775 11.512 71.4912 11.8994C71.5094 12.2868 71.5186 12.6423 71.5186 12.9658ZM80.7676 17.0127L77.377 17.4502L76.9668 15.9053H75.4082L75.0664 17.4502L71.5801 17.1084L74.3008 8.00293L78.1016 7.81152L80.7676 17.0127ZM76.7207 13.8135L76.2012 11.4346L75.6953 13.8135H76.7207ZM88.9229 11.0107C88.9229 11.3662 88.891 11.6898 88.8271 11.9814C88.7679 12.2686 88.6722 12.5329 88.54 12.7744C88.4079 13.016 88.237 13.2393 88.0273 13.4443C87.8177 13.6494 87.5648 13.8454 87.2686 14.0322L88.8955 16.9307L85.8193 17.5322L84.7666 14.6201L83.9189 14.6475L83.7959 17.4912H80.8564C80.8792 16.4521 80.8997 15.4176 80.918 14.3877C80.9408 13.3577 80.9658 12.3232 80.9932 11.2842C81.0023 10.7601 81.0114 10.2406 81.0205 9.72559C81.0296 9.21061 81.0479 8.69108 81.0752 8.16699C81.3942 8.0485 81.7087 7.95052 82.0186 7.87305C82.3285 7.79557 82.6383 7.73633 82.9482 7.69531C83.2627 7.64974 83.5794 7.62012 83.8984 7.60645C84.222 7.58822 84.5524 7.5791 84.8896 7.5791C85.4092 7.5791 85.9105 7.65202 86.3936 7.79785C86.8812 7.93913 87.3118 8.15332 87.6855 8.44043C88.0592 8.72754 88.3577 9.08529 88.5811 9.51367C88.8089 9.94206 88.9229 10.4411 88.9229 11.0107ZM85.8604 11.2295C85.8604 11.0381 85.833 10.8626 85.7783 10.7031C85.7282 10.5436 85.6507 10.4069 85.5459 10.293C85.4456 10.1745 85.318 10.0833 85.1631 10.0195C85.0127 9.95117 84.835 9.91699 84.6299 9.91699C84.5387 9.91699 84.4499 9.92383 84.3633 9.9375C84.2767 9.94661 84.1924 9.96257 84.1104 9.98535L84.001 12.5283H84.165C84.361 12.5283 84.5592 12.5033 84.7598 12.4531C84.9648 12.403 85.1471 12.3255 85.3066 12.2207C85.4707 12.1159 85.6029 11.9814 85.7031 11.8174C85.8079 11.6533 85.8604 11.4574 85.8604 11.2295ZM92.9697 7.97559L92.4912 17.2861L89.6064 17.4365L89.333 8.16699L92.9697 7.97559ZM99.9971 7.87988C99.9697 8.30827 99.9447 8.7321 99.9219 9.15137C99.8991 9.57064 99.8695 9.99447 99.833 10.4229L96.9346 10.5732V11.4346H99.4502L99.3135 13.5537L96.9209 13.6221L96.9346 17.3955L93.4756 17.4639L93.6943 7.87988H99.9971ZM108.891 8.34473L105.678 13.5947L105.773 17.4639H102.26L102.342 13.6221L99.8398 8.5498L103.326 8.1123L104.42 11.0654L105.609 8.1123L108.891 8.34473Z" fill="url(#paint1_linear_37_3)"/>
</g>
<defs>
<linearGradient id="paint0_linear_37_3" x1="-1" y1="3" x2="22.6474" y2="3" gradientUnits="userSpaceOnUse">
<stop stop-color="#EF4136"/>
<stop offset="1" stop-color="#FBB040"/>
</linearGradient>
<linearGradient id="paint1_linear_37_3" x1="30.6465" y1="14.6006" x2="110.646" y2="14.6006" gradientUnits="userSpaceOnUse">
<stop stop-color="#F3930B"/>
<stop offset="0.545" stop-color="#EA580C"/>
<stop offset="1" stop-color="#F3930B"/>
</linearGradient>
<clipPath id="clip0_37_3">
<rect width="109" height="30" fill="white"/>
</clipPath>
</defs>
</svg>
